<svg width="3000" height="3000" viewBox="0 0 3000 3000" fill="none" xmlns="http://www.w3.org/2000/svg">
<path d="M375 632C375 623.716 368.284 617 360 617C351.716 617 345 623.716 345 632H375ZM360 2368H345C345 2374.63 349.352 2380.47 355.703 2382.37C362.055 2384.27 368.899 2381.77 372.538 2376.23L360 2368ZM1500 632H1515C1515 625.371 1510.65 619.528 1504.3 617.629C1497.95 615.73 1491.1 618.225 1487.46 623.766L1500 632ZM1500 2368L1487.46 2376.23C1491.1 2381.77 1497.95 2384.27 1504.3 2382.37C1510.65 2380.47 1515 2374.63 1515 2368H1500ZM942.538 1491.77C937.991 1484.84 928.691 1482.91 921.766 1487.46C914.842 1492.01 912.914 1501.31 917.462 1508.23L942.538 1491.77ZM345 632V2368H375V632H345ZM372.538 2376.23L1512.54 640.234L1487.46 623.766L347.462 2359.77L372.538 2376.23ZM1485 632V2368H1515V632H1485ZM1512.54 2359.77L942.538 1491.77L917.462 1508.23L1487.46 2376.23L1512.54 2359.77Z" fill="#E9E9E9"/>
<path fill-rule="evenodd" clip-rule="evenodd" d="M1460 2234.22L977.859 1500L1460 765.781V2234.22Z" fill="#E9E9E9" stroke="#E9E9E9" stroke-width="80" stroke-linecap="round"/>
<path d="M1500 617C1491.72 617 1485 623.716 1485 632C1485 640.284 1491.72 647 1500 647V617ZM2106 632L2106.48 617.008L2106.24 617H2106V632ZM2106 1611V1626H2106.08L2106.17 1626L2106 1611ZM1796 1611V1596C1789.78 1596 1784.21 1599.83 1781.99 1605.64C1779.77 1611.44 1781.36 1618.02 1785.98 1622.17L1796 1611ZM2629.98 2379.17C2636.15 2384.7 2645.64 2384.18 2651.17 2378.02C2656.7 2371.85 2656.18 2362.36 2650.02 2356.83L2629.98 2379.17ZM1500 647H2106V617H1500V647ZM2106 632C2105.52 646.992 2105.52 646.992 2105.52 646.992C2105.52 646.992 2105.52 646.992 2105.52 646.992C2105.53 646.993 2105.54 646.993 2105.57 646.994C2105.61 646.996 2105.69 646.998 2105.8 647.003C2106.02 647.011 2106.37 647.026 2106.84 647.047C2107.77 647.091 2109.2 647.163 2111.07 647.279C2114.83 647.511 2120.39 647.914 2127.52 648.596C2141.76 649.96 2162.2 652.439 2186.77 656.885C2235.96 665.791 2301.33 682.527 2366.52 713.776C2431.69 745.018 2496.21 790.543 2544.43 856.825C2592.53 922.931 2625 1010.49 2625 1127H2655C2655 1004.51 2620.72 910.694 2568.69 839.175C2516.79 767.832 2447.81 719.482 2379.48 686.724C2311.17 653.973 2243.04 636.584 2192.11 627.365C2166.61 622.749 2145.33 620.165 2130.38 618.732C2122.89 618.016 2116.99 617.587 2112.92 617.336C2110.89 617.211 2109.31 617.13 2108.23 617.079C2107.68 617.054 2107.26 617.037 2106.97 617.026C2106.82 617.02 2106.71 617.016 2106.63 617.013C2106.59 617.011 2106.55 617.01 2106.53 617.009C2106.52 617.009 2106.5 617.008 2106.5 617.008C2106.49 617.008 2106.48 617.008 2106 632ZM2625 1127C2625 1243.51 2592.53 1330.34 2544.5 1395.37C2496.33 1460.58 2431.88 1504.73 2366.74 1534.62C2301.6 1564.51 2236.25 1579.89 2187.06 1587.78C2162.5 1591.72 2142.07 1593.78 2127.82 1594.85C2120.7 1595.39 2115.13 1595.67 2111.38 1595.83C2109.51 1595.91 2108.08 1595.95 2107.15 1595.97C2106.68 1595.99 2106.33 1595.99 2106.11 1596C2106 1596 2105.92 1596 2105.88 1596C2105.85 1596 2105.84 1596 2105.83 1596C2105.83 1596 2105.83 1596 2105.82 1596C2105.83 1596 2105.83 1596 2106 1611C2106.17 1626 2106.18 1626 2106.19 1626C2106.19 1626 2106.21 1626 2106.22 1626C2106.24 1626 2106.28 1626 2106.32 1626C2106.4 1626 2106.52 1625.99 2106.66 1625.99C2106.95 1625.99 2107.37 1625.98 2107.92 1625.96C2109 1625.94 2110.58 1625.89 2112.61 1625.8C2116.68 1625.64 2122.59 1625.33 2130.07 1624.77C2145.03 1623.64 2166.31 1621.5 2191.81 1617.4C2242.75 1609.23 2310.9 1593.24 2379.26 1561.88C2447.62 1530.52 2516.67 1483.55 2568.63 1413.19C2620.72 1342.66 2655 1249.49 2655 1127H2625ZM2106 1596H1796V1626H2106V1596ZM1785.98 1622.17L2629.98 2379.17L2650.02 2356.83L1806.02 1599.83L1785.98 1622.17Z" fill="#E9E9E9"/>
</svg>
