<svg width="3000" height="3000" viewBox="0 0 3000 3000" fill="none" xmlns="http://www.w3.org/2000/svg">
<path d="M410 632C410 604.386 387.614 582 360 582C332.386 582 310 604.386 310 632H410ZM360 2368H310C310 2390.1 324.506 2409.57 345.677 2415.9C366.849 2422.23 389.665 2413.92 401.794 2395.45L360 2368ZM1500 632H1550C1550 609.902 1535.49 590.425 1514.32 584.095C1493.15 577.765 1470.34 586.084 1458.21 604.555L1500 632ZM1500 2368L1458.21 2395.45C1470.34 2413.92 1493.15 2422.23 1514.32 2415.9C1535.49 2409.57 1550 2390.1 1550 2368H1500ZM971.794 1472.55C956.636 1449.47 925.637 1443.05 902.555 1458.21C879.472 1473.36 873.048 1504.36 888.206 1527.45L971.794 1472.55ZM310 632V2368H410V632H310ZM401.794 2395.45L1541.79 659.445L1458.21 604.555L318.206 2340.55L401.794 2395.45ZM1450 632V2368H1550V632H1450ZM1541.79 2340.55L971.794 1472.55L888.206 1527.45L1458.21 2395.45L1541.79 2340.55Z" fill="#E9E9E9"/>
<path fill-rule="evenodd" clip-rule="evenodd" d="M1460 2234.22L977.86 1500L1460 765.781V2234.22Z" fill="#E9E9E9" stroke="#E9E9E9" stroke-width="100" stroke-linecap="round"/>
<path d="M1500 582C1472.39 582 1450 604.386 1450 632C1450 659.614 1472.39 682 1500 682V582ZM2106 632L2107.59 582.025L2106.8 582H2106V632ZM2106 1611V1661H2106.28L2106.56 1661L2106 1611ZM1796 1611V1561C1775.28 1561 1756.71 1573.78 1749.3 1593.13C1741.9 1612.48 1747.19 1634.39 1762.62 1648.22L1796 1611ZM2606.62 2405.22C2627.17 2423.66 2658.78 2421.94 2677.22 2401.38C2695.66 2380.83 2693.94 2349.22 2673.38 2330.78L2606.62 2405.22ZM1500 682H2106V582H1500V682ZM2106 632C2104.41 681.975 2104.39 681.974 2104.37 681.973C2104.37 681.973 2104.35 681.973 2104.35 681.973C2104.33 681.972 2104.33 681.972 2104.33 681.972C2104.34 681.972 2104.37 681.974 2104.44 681.976C2104.58 681.982 2104.84 681.992 2105.22 682.01C2105.98 682.045 2107.23 682.108 2108.92 682.213C2112.3 682.422 2117.48 682.794 2124.18 683.436C2137.6 684.722 2157.06 687.076 2180.53 691.325C2227.71 699.866 2289.86 715.84 2351.39 745.337C2412.87 774.811 2472.21 817.039 2516.13 877.415C2559.63 937.209 2590 1017.47 2590 1127H2690C2690 997.529 2653.62 896.416 2596.99 818.585C2540.79 741.336 2466.63 689.689 2394.61 655.163C2322.64 620.66 2251.29 602.509 2198.34 592.925C2171.75 588.111 2149.5 585.403 2133.71 583.892C2125.81 583.135 2119.51 582.676 2115.07 582.402C2112.86 582.266 2111.1 582.175 2109.84 582.117C2109.21 582.088 2108.71 582.067 2108.33 582.052C2108.14 582.045 2107.99 582.039 2107.86 582.035C2107.8 582.032 2107.75 582.031 2107.7 582.029C2107.68 582.028 2107.65 582.027 2107.64 582.027C2107.61 582.026 2107.59 582.025 2106 632ZM2590 1127C2590 1236.53 2559.64 1315.96 2516.34 1374.58C2472.61 1433.78 2413.51 1474.65 2352.15 1502.8C2290.74 1530.98 2228.68 1545.66 2181.52 1553.22C2158.06 1556.99 2138.61 1558.94 2125.2 1559.95C2118.5 1560.45 2113.33 1560.72 2109.95 1560.86C2108.25 1560.93 2107.01 1560.97 2106.25 1560.98C2105.87 1560.99 2105.61 1561 2105.47 1561C2105.4 1561 2105.36 1561 2105.36 1561C2105.36 1561 2105.36 1561 2105.37 1561C2105.38 1561 2105.4 1561 2105.4 1561C2105.42 1561 2105.44 1561 2106 1611C2106.56 1661 2106.59 1661 2106.61 1661C2106.62 1661 2106.65 1661 2106.67 1661C2106.72 1660.99 2106.77 1660.99 2106.84 1660.99C2106.96 1660.99 2107.12 1660.99 2107.3 1660.99C2107.68 1660.98 2108.19 1660.97 2108.82 1660.95C2110.07 1660.92 2111.83 1660.86 2114.05 1660.77C2118.49 1660.59 2124.79 1660.26 2132.69 1659.67C2148.48 1658.48 2170.75 1656.23 2197.36 1651.96C2250.32 1643.47 2321.76 1626.77 2393.85 1593.7C2465.99 1560.6 2540.39 1510.34 2596.78 1433.99C2653.61 1357.04 2690 1256.47 2690 1127H2590ZM2106 1561H1796V1661H2106V1561ZM1762.62 1648.22L2606.62 2405.22L2673.38 2330.78L1829.38 1573.78L1762.62 1648.22Z" fill="#E9E9E9"/>
</svg>
