<svg width="3000" height="3000" viewBox="0 0 3000 3000" fill="none" xmlns="http://www.w3.org/2000/svg">
<path d="M385 632C385 618.193 373.807 607 360 607C346.193 607 335 618.193 335 632H385ZM360 2368H335C335 2379.05 342.253 2388.79 352.839 2391.95C363.424 2395.12 374.832 2390.96 380.897 2381.72L360 2368ZM1500 632H1525C1525 620.951 1517.75 611.213 1507.16 608.048C1496.58 604.883 1485.17 609.042 1479.1 618.277L1500 632ZM1500 2368L1479.1 2381.72C1485.17 2390.96 1496.58 2395.12 1507.16 2391.95C1517.75 2388.79 1525 2379.05 1525 2368H1500ZM950.897 1486.28C943.318 1474.74 927.818 1471.52 916.277 1479.1C904.736 1486.68 901.524 1502.18 909.103 1513.72L950.897 1486.28ZM335 632V2368H385V632H335ZM380.897 2381.72L1520.9 645.723L1479.1 618.277L339.103 2354.28L380.897 2381.72ZM1475 632V2368H1525V632H1475ZM1520.9 2354.28L950.897 1486.28L909.103 1513.72L1479.1 2381.72L1520.9 2354.28Z" fill="#E9E9E9"/>
<path fill-rule="evenodd" clip-rule="evenodd" d="M1460 2234.22L977.859 1500L1460 765.781V2234.22Z" fill="#E9E9E9" stroke="#E9E9E9" stroke-width="50" stroke-linecap="round"/>
<path d="M1500 607C1486.19 607 1475 618.193 1475 632C1475 645.807 1486.19 657 1500 657V607ZM2106 632L2106.8 607.013L2106.4 607H2106V632ZM2106 1611V1636H2106.14L2106.28 1636L2106 1611ZM1796 1611V1586C1785.64 1586 1776.35 1592.39 1772.65 1602.06C1768.95 1611.74 1771.6 1622.69 1779.31 1629.61L1796 1611ZM2623.31 2386.61C2633.59 2395.83 2649.39 2394.97 2658.61 2384.69C2667.83 2374.41 2666.97 2358.61 2656.69 2349.39L2623.31 2386.61ZM1500 657H2106V607H1500V657ZM2106 632C2105.2 656.987 2105.2 656.987 2105.19 656.987C2105.19 656.987 2105.18 656.987 2105.19 656.987C2105.19 656.987 2105.2 656.987 2105.21 656.988C2105.25 656.989 2105.32 656.991 2105.41 656.995C2105.61 657.003 2105.93 657.016 2106.38 657.037C2107.26 657.078 2108.63 657.148 2110.46 657.26C2114.11 657.485 2119.56 657.88 2126.56 658.55C2140.57 659.892 2160.73 662.335 2184.98 666.725C2233.61 675.527 2298.05 692.045 2362.19 722.793C2426.31 753.531 2489.35 798.113 2536.35 862.708C2583.13 927.011 2615 1012.49 2615 1127H2665C2665 1002.51 2630.12 906.614 2576.78 833.292C2523.65 760.262 2453.19 710.969 2383.81 677.707C2314.45 644.455 2245.39 626.848 2193.89 617.525C2168.08 612.852 2146.52 610.233 2131.33 608.778C2123.73 608.05 2117.71 607.612 2113.54 607.355C2111.45 607.226 2109.82 607.143 2108.69 607.09C2108.12 607.064 2107.68 607.045 2107.36 607.033C2107.2 607.027 2107.07 607.022 2106.98 607.019C2106.93 607.017 2106.89 607.016 2106.86 607.015C2106.85 607.014 2106.83 607.014 2106.82 607.014C2106.81 607.013 2106.8 607.013 2106 632ZM2615 1127C2615 1241.52 2583.13 1326.23 2536.45 1389.43C2489.56 1452.92 2426.63 1496.14 2362.57 1525.53C2298.49 1554.93 2234.09 1570.11 2185.48 1577.91C2161.23 1581.8 2141.08 1583.83 2127.07 1584.88C2120.07 1585.41 2114.62 1585.69 2110.97 1585.84C2109.15 1585.91 2107.78 1585.95 2106.89 1585.98C2106.45 1585.99 2106.13 1585.99 2105.93 1586C2105.83 1586 2105.76 1586 2105.73 1586C2105.71 1586 2105.7 1586 2105.7 1586C2105.7 1586 2105.7 1586 2105.7 1586C2105.71 1586 2105.72 1586 2106 1611C2106.28 1636 2106.29 1636 2106.31 1636C2106.32 1636 2106.33 1636 2106.35 1636C2106.38 1636 2106.42 1636 2106.47 1636C2106.56 1635.99 2106.69 1635.99 2106.85 1635.99C2107.16 1635.98 2107.61 1635.97 2108.17 1635.96C2109.31 1635.93 2110.94 1635.88 2113.02 1635.79C2117.2 1635.62 2123.22 1635.31 2130.82 1634.74C2146.02 1633.6 2167.58 1631.42 2193.4 1627.28C2244.91 1619.01 2314.01 1602.82 2383.43 1570.97C2452.87 1539.11 2523.44 1491.2 2576.67 1419.13C2630.12 1346.77 2665 1251.48 2665 1127H2615ZM2106 1586H1796V1636H2106V1586ZM1779.31 1629.61L2623.31 2386.61L2656.69 2349.39L1812.69 1592.39L1779.31 1629.61Z" fill="#E9E9E9"/>
</svg>
